<?xml version="1.0" encoding="utf-8"?>
<!-- Generator: Adobe Illustrator 19.0.0, SVG Export Plug-In . SVG Version: 6.00 Build 0)  -->
<svg version="1.1" id="Layer_1" xmlns="http://www.w3.org/2000/svg" xmlns:xlink="http://www.w3.org/1999/xlink" x="0px" y="0px"
	 viewBox="0 0 300 30" style="enable-background:new 0 0 300 30;" xml:space="preserve">
<style type="text/css">
	.st0{fill:#FFFFFF;}
	.st1{font-family:'Rockwell';}
	.st2{font-size:26.7501px;}
	.st3{fill:#FFF800;}
	.st4{display:none;fill:none;stroke:#FF0000;stroke-miterlimit:10;}
</style>
<text id="XMLID_1_" transform="matrix(0.9199 0 0 1 0 22.5713)" class="st0 st1 st2">exoticdestination.com</text>
<path id="XMLID_197_" class="st3" d="M259.1,22.6h-4c-0.6,0-1-0.5-1-1v-2c0-0.6,0.5-1,1-1h4c0.6,0,1,0.5,1,1v2
	C260.2,22.1,259.7,22.6,259.1,22.6z"/>
<path id="XMLID_199_" class="st3" d="M282.7,12.9h-10c-0.6,0-1-0.5-1-1v-6c0-0.6,0.5-1,1-1h10c0.6,0,1,0.5,1,1v6
	C283.7,12.5,283.2,12.9,282.7,12.9z"/>
<path id="XMLID_198_" class="st3" d="M269.5,18.6h-7c-0.6,0-1-0.5-1-1v-4c0-0.6,0.5-1,1-1h7c0.6,0,1,0.5,1,1v4
	C270.5,18.1,270.1,18.6,269.5,18.6z"/>
<line id="XMLID_200_" class="st4" x1="255.2" y1="20.6" x2="290.3" y2="0"/>
</svg>
